<mxfile host="Electron" modified="2024-02-21T09:01:10.649Z" agent="Mozilla/5.0 (Windows NT 10.0; Win64; x64) AppleWebKit/537.36 (KHTML, like Gecko) draw.io/22.0.3 Chrome/114.0.5735.289 Electron/25.8.4 Safari/537.36" etag="yxiZ-wPalxhPL5avkIWC" version="22.0.3" type="device">
  <diagram name="PÃ¡gina-1" id="cHZsCNHryJJcQiOb9n7G">
    <mxGraphModel dx="712" dy="827" grid="1" gridSize="10" guides="1" tooltips="1" connect="1" arrows="1" fold="1" page="1" pageScale="1" pageWidth="827" pageHeight="1169" math="0" shadow="0">
      <root>
        <mxCell id="0" />
        <mxCell id="1" parent="0" />
        <mxCell id="Nyp-aqp3VWiPjF_TcECs-4" value="Login" style="shape=umlLifeline;perimeter=lifelinePerimeter;whiteSpace=wrap;html=1;container=1;dropTarget=0;collapsible=0;recursiveResize=0;outlineConnect=0;portConstraint=eastwest;newEdgeStyle={&quot;curved&quot;:0,&quot;rounded&quot;:0};participant=umlBoundary;" vertex="1" parent="1">
          <mxGeometry x="350" y="220" width="50" height="450" as="geometry" />
        </mxCell>
        <mxCell id="Nyp-aqp3VWiPjF_TcECs-5" value="" style="html=1;points=[[0,0,0,0,5],[0,1,0,0,-5],[1,0,0,0,5],[1,1,0,0,-5]];perimeter=orthogonalPerimeter;outlineConnect=0;targetShapes=umlLifeline;portConstraint=eastwest;newEdgeStyle={&quot;curved&quot;:0,&quot;rounded&quot;:0};" vertex="1" parent="Nyp-aqp3VWiPjF_TcECs-4">
          <mxGeometry x="20" y="65" width="10" height="355" as="geometry" />
        </mxCell>
        <mxCell id="Nyp-aqp3VWiPjF_TcECs-6" value="usuario" style="shape=umlActor;verticalLabelPosition=bottom;verticalAlign=top;html=1;outlineConnect=0;" vertex="1" parent="1">
          <mxGeometry x="150" y="200" width="30" height="60" as="geometry" />
        </mxCell>
        <mxCell id="Nyp-aqp3VWiPjF_TcECs-7" value="" style="endArrow=none;dashed=1;html=1;rounded=0;" edge="1" parent="1" target="Nyp-aqp3VWiPjF_TcECs-6">
          <mxGeometry width="50" height="50" relative="1" as="geometry">
            <mxPoint x="165" y="670" as="sourcePoint" />
            <mxPoint x="350" y="390" as="targetPoint" />
          </mxGeometry>
        </mxCell>
        <mxCell id="Nyp-aqp3VWiPjF_TcECs-8" style="edgeStyle=orthogonalEdgeStyle;rounded=0;orthogonalLoop=1;jettySize=auto;html=1;curved=0;" edge="1" parent="1">
          <mxGeometry relative="1" as="geometry">
            <mxPoint x="170" y="290" as="sourcePoint" />
            <mxPoint x="370" y="290" as="targetPoint" />
            <Array as="points">
              <mxPoint x="170" y="290" />
              <mxPoint x="370" y="290" />
            </Array>
          </mxGeometry>
        </mxCell>
        <mxCell id="Nyp-aqp3VWiPjF_TcECs-9" value="identificarse()" style="text;html=1;align=center;verticalAlign=middle;resizable=0;points=[];autosize=1;strokeColor=none;fillColor=none;" vertex="1" parent="1">
          <mxGeometry x="220" y="268" width="100" height="30" as="geometry" />
        </mxCell>
        <mxCell id="Nyp-aqp3VWiPjF_TcECs-10" style="edgeStyle=orthogonalEdgeStyle;rounded=0;orthogonalLoop=1;jettySize=auto;html=1;curved=0;" edge="1" parent="1">
          <mxGeometry relative="1" as="geometry">
            <mxPoint x="370" y="340" as="sourcePoint" />
            <mxPoint x="170" y="340" as="targetPoint" />
            <Array as="points">
              <mxPoint x="370" y="340" />
            </Array>
          </mxGeometry>
        </mxCell>
        <mxCell id="Nyp-aqp3VWiPjF_TcECs-11" value="datos()" style="text;html=1;strokeColor=none;fillColor=none;align=center;verticalAlign=middle;whiteSpace=wrap;rounded=0;" vertex="1" parent="1">
          <mxGeometry x="240" y="310" width="60" height="30" as="geometry" />
        </mxCell>
        <mxCell id="Nyp-aqp3VWiPjF_TcECs-12" value="return" style="endArrow=open;endSize=12;dashed=1;html=1;rounded=0;" edge="1" parent="1" target="Nyp-aqp3VWiPjF_TcECs-4">
          <mxGeometry width="160" relative="1" as="geometry">
            <mxPoint x="170" y="390" as="sourcePoint" />
            <mxPoint x="340" y="390" as="targetPoint" />
          </mxGeometry>
        </mxCell>
        <mxCell id="Nyp-aqp3VWiPjF_TcECs-13" value="return" style="endArrow=open;endSize=12;dashed=1;html=1;rounded=0;" edge="1" parent="1">
          <mxGeometry width="160" relative="1" as="geometry">
            <mxPoint x="372.25" y="510" as="sourcePoint" />
            <mxPoint x="167.75" y="510" as="targetPoint" />
          </mxGeometry>
        </mxCell>
        <mxCell id="Nyp-aqp3VWiPjF_TcECs-14" value="validarAcceso" style="shape=umlLifeline;perimeter=lifelinePerimeter;whiteSpace=wrap;html=1;container=1;dropTarget=0;collapsible=0;recursiveResize=0;outlineConnect=0;portConstraint=eastwest;newEdgeStyle={&quot;curved&quot;:0,&quot;rounded&quot;:0};participant=umlControl;" vertex="1" parent="1">
          <mxGeometry x="550" y="220" width="40" height="300" as="geometry" />
        </mxCell>
        <mxCell id="Nyp-aqp3VWiPjF_TcECs-15" value="" style="html=1;points=[[0,0,0,0,5],[0,1,0,0,-5],[1,0,0,0,5],[1,1,0,0,-5]];perimeter=orthogonalPerimeter;outlineConnect=0;targetShapes=umlLifeline;portConstraint=eastwest;newEdgeStyle={&quot;curved&quot;:0,&quot;rounded&quot;:0};" vertex="1" parent="Nyp-aqp3VWiPjF_TcECs-14">
          <mxGeometry x="15" y="180" width="10" height="80" as="geometry" />
        </mxCell>
        <mxCell id="Nyp-aqp3VWiPjF_TcECs-16" value="validarUsuario()" style="html=1;verticalAlign=bottom;endArrow=block;curved=0;rounded=0;" edge="1" parent="1" target="Nyp-aqp3VWiPjF_TcECs-14">
          <mxGeometry width="80" relative="1" as="geometry">
            <mxPoint x="380" y="410" as="sourcePoint" />
            <mxPoint x="460" y="410" as="targetPoint" />
          </mxGeometry>
        </mxCell>
        <mxCell id="Nyp-aqp3VWiPjF_TcECs-17" value="return" style="endArrow=open;endSize=12;dashed=1;html=1;rounded=0;" edge="1" parent="1" target="Nyp-aqp3VWiPjF_TcECs-4">
          <mxGeometry x="0.0051" width="160" relative="1" as="geometry">
            <mxPoint x="569.5" y="480" as="sourcePoint" />
            <mxPoint x="420" y="480" as="targetPoint" />
            <mxPoint as="offset" />
          </mxGeometry>
        </mxCell>
        <mxCell id="Nyp-aqp3VWiPjF_TcECs-18" value="" style="shape=umlLifeline;perimeter=lifelinePerimeter;whiteSpace=wrap;html=1;container=1;dropTarget=0;collapsible=0;recursiveResize=0;outlineConnect=0;portConstraint=eastwest;newEdgeStyle={&quot;curved&quot;:0,&quot;rounded&quot;:0};participant=umlEntity;" vertex="1" parent="1">
          <mxGeometry x="710" y="225" width="40" height="300" as="geometry" />
        </mxCell>
        <mxCell id="Nyp-aqp3VWiPjF_TcECs-20" value="loop" style="shape=umlFrame;whiteSpace=wrap;html=1;pointerEvents=0;" vertex="1" parent="1">
          <mxGeometry x="90" y="310" width="690" height="220" as="geometry" />
        </mxCell>
        <mxCell id="Nyp-aqp3VWiPjF_TcECs-21" value="" style="html=1;points=[[0,0,0,0,5],[0,1,0,0,-5],[1,0,0,0,5],[1,1,0,0,-5]];perimeter=orthogonalPerimeter;outlineConnect=0;targetShapes=umlLifeline;portConstraint=eastwest;newEdgeStyle={&quot;curved&quot;:0,&quot;rounded&quot;:0};" vertex="1" parent="1">
          <mxGeometry x="160" y="298" width="10" height="342" as="geometry" />
        </mxCell>
        <mxCell id="Nyp-aqp3VWiPjF_TcECs-26" value="return" style="endArrow=open;endSize=12;dashed=1;html=1;rounded=0;" edge="1" parent="1">
          <mxGeometry width="160" relative="1" as="geometry">
            <mxPoint x="374.5" y="560" as="sourcePoint" />
            <mxPoint x="170" y="560" as="targetPoint" />
          </mxGeometry>
        </mxCell>
        <mxCell id="Nyp-aqp3VWiPjF_TcECs-27" value="return" style="endArrow=open;endSize=12;dashed=1;html=1;rounded=0;" edge="1" parent="1">
          <mxGeometry width="160" relative="1" as="geometry">
            <mxPoint x="374.5" y="610" as="sourcePoint" />
            <mxPoint x="170" y="610" as="targetPoint" />
          </mxGeometry>
        </mxCell>
        <mxCell id="Nyp-aqp3VWiPjF_TcECs-28" value="alt" style="shape=umlFrame;whiteSpace=wrap;html=1;pointerEvents=0;" vertex="1" parent="1">
          <mxGeometry x="90" y="540" width="310" height="50" as="geometry" />
        </mxCell>
      </root>
    </mxGraphModel>
  </diagram>
</mxfile>
